<svg width="134" height="36" viewBox="0 0 134 36" fill="none" xmlns="http://www.w3.org/2000/svg">
<g clip-path="url(#clip0_7391_229410)">
<path d="M10.0627 28.875C14.3049 28.875 17.0236 26.5781 17.0236 23.2031C17.0236 19.8047 14.4221 18.4922 10.7658 17.6719L9.78143 17.4375C7.36737 16.8984 6.10175 16.1953 6.10175 14.4844C6.10175 12.7969 7.41425 11.7891 9.73456 11.7891C12.1252 11.7891 13.7189 12.7969 13.7189 15.2109V16.1953H16.6017V15.2109C16.6017 11.25 13.6955 9.21094 9.73456 9.21094C5.8205 9.21094 3.21893 11.25 3.21893 14.5781C3.21893 17.8828 5.51581 19.1953 9.14862 20.0156L10.1564 20.2734C12.6408 20.8359 14.1408 21.4453 14.1408 23.2734C14.1408 25.0547 12.7346 26.3203 10.0627 26.3203C7.39081 26.3203 5.65643 25.0078 5.65643 22.3125V21.6328H2.77362V22.3125C2.77362 26.5547 5.8205 28.875 10.0627 28.875Z" fill="white"/>
<path d="M20.0862 13.3828C21.1877 13.3828 22.008 12.6328 22.008 11.4844C22.008 10.3594 21.1877 9.60937 20.0862 9.60937C18.9846 9.60937 18.1877 10.3594 18.1877 11.4844C18.1877 12.6328 18.9846 13.3828 20.0862 13.3828ZM18.7034 28.5H21.469V15.1875H18.7034V28.5Z" fill="white"/>
<path d="M27.2548 33.9844H31.2626C34.1923 33.9844 35.8329 32.5312 35.8329 30.2344V30.0234C35.8329 27.6797 34.1923 26.3672 31.2626 26.3672H27.1845C26.3642 26.3672 25.8017 26.0156 25.8017 25.2656C25.8017 24.6094 26.2001 24.2812 26.6923 24.1641C27.372 24.3984 28.122 24.5391 28.9657 24.5391C31.9657 24.5391 34.0048 22.8516 34.0048 19.9219C34.0048 19.0312 33.7235 18.3047 33.372 17.7656V17.3672H35.6688V15.1875H31.0985C30.536 15 29.7626 14.8125 28.9423 14.8125C25.9657 14.8125 23.6923 16.4531 23.6923 19.5937V19.6875C23.6923 21.1406 24.161 22.2422 24.9345 23.0391V23.3906C24.1845 23.7187 23.4345 24.4453 23.4345 25.7109C23.4345 26.9062 24.0438 27.5859 24.6532 27.9609V28.3359C23.997 28.6406 23.1767 29.3906 23.1767 30.7969C23.1767 32.5547 24.372 33.9844 27.2548 33.9844ZM28.9657 22.2656C27.4188 22.2656 26.2938 21.2344 26.2938 19.6406C26.2938 18.0469 27.4188 17.0156 28.9657 17.0156C30.5126 17.0156 31.6376 18.0469 31.6376 19.6406C31.6376 21.2344 30.5126 22.2656 28.9657 22.2656ZM27.4188 31.7109C26.2704 31.7109 25.5907 31.1719 25.5907 30.2109C25.5907 29.2266 26.2704 28.6641 27.4188 28.6641H31.497C32.6688 28.6641 33.3485 29.2266 33.3485 30.2109C33.3485 31.1719 32.6688 31.7109 31.497 31.7109H27.4188Z" fill="white"/>
<path d="M37.031 28.5H39.7966V21.7734C39.7966 18.9141 41.32 17.3437 43.6169 17.3437C45.6325 17.3437 46.8513 18.3984 46.8513 20.7187V28.5H49.6403V20.5078C49.6403 17.0859 47.4372 14.9766 44.4138 14.9766C41.8591 14.9766 40.6872 16.1016 40.1716 17.1797H39.7497V15.1875H37.031V28.5Z" fill="white"/>
<path d="M56.2598 28.875C59.0019 28.875 59.9863 27.4687 60.3848 26.6016H60.8066V26.6953C60.8066 27.7969 61.6738 28.5 62.916 28.5H65.0019V26.1797H63.8769C63.3848 26.1797 63.1035 25.8984 63.1035 25.3594V19.8984C63.1035 16.6406 61.0176 14.8125 57.5488 14.8125C54.1504 14.8125 52.3926 16.6172 51.7363 18.7266L54.3379 19.5703C54.666 18.1406 55.6035 17.1328 57.5254 17.1328C59.4707 17.1328 60.3848 18.1641 60.3848 19.6875V20.5547H56.3301C53.4238 20.5547 51.2676 21.9609 51.2676 24.6562C51.2676 27.375 53.4238 28.875 56.2598 28.875ZM56.6582 26.5781C55.0176 26.5781 54.0332 25.8047 54.0332 24.5859C54.0332 23.3672 55.0176 22.7109 56.4941 22.7109H60.3848V22.9922C60.3848 25.2422 58.8848 26.5781 56.6582 26.5781Z" fill="white"/>
<path d="M66.2126 28.5H68.9782V9.60937H66.2126V28.5Z" fill="white"/>
<path d="M77.8577 28.875C81.8421 28.875 84.7718 26.2969 84.7718 22.0547V21.6328C84.7718 17.4375 81.8421 14.8125 77.8577 14.8125C73.8499 14.8125 70.9671 17.4375 70.9671 21.6328V22.0547C70.9671 26.2969 73.8499 28.875 77.8577 28.875ZM77.8577 26.3906C75.4202 26.3906 73.7562 24.75 73.7562 21.9609V21.7266C73.7562 18.9609 75.4202 17.2969 77.8577 17.2969C80.2952 17.2969 81.9827 18.9609 81.9827 21.7266V21.9609C81.9827 24.75 80.2718 26.3906 77.8577 26.3906Z" fill="white"/>
<path d="M88.11 13.3828C89.2115 13.3828 90.0318 12.6328 90.0318 11.4844C90.0318 10.3594 89.2115 9.60937 88.11 9.60937C87.0084 9.60937 86.2115 10.3594 86.2115 11.4844C86.2115 12.6328 87.0084 13.3828 88.11 13.3828ZM86.7272 28.5H89.4928V15.1875H86.7272V28.5Z" fill="white"/>
<path d="M97.6458 28.875C100.224 28.875 101.49 27.7734 102.169 26.6016H102.615V28.5H105.333V9.60937H102.544V16.9922H102.122C101.49 15.9141 100.224 14.8125 97.6458 14.8125C94.2942 14.8125 91.4817 17.3437 91.4817 21.6328V22.0547C91.4817 26.3672 94.3176 28.875 97.6458 28.875ZM98.4192 26.4375C96.052 26.4375 94.2942 24.8203 94.2942 21.9609V21.7266C94.2942 18.8672 96.0051 17.2734 98.4192 17.2734C100.857 17.2734 102.568 18.8672 102.568 21.7266V21.9609C102.568 24.8203 100.81 26.4375 98.4192 26.4375Z" fill="white"/>
<path d="M108.283 28.8281C109.361 28.8281 110.181 28.0547 110.181 26.9531C110.181 25.8516 109.361 25.0781 108.283 25.0781C107.205 25.0781 106.408 25.8516 106.408 26.9531C106.408 28.0547 107.205 28.8281 108.283 28.8281ZM108.283 28.4766C107.369 28.4766 106.759 27.8672 106.759 26.9531C106.759 26.0391 107.369 25.4297 108.283 25.4297C109.197 25.4297 109.806 26.0391 109.806 26.9531C109.806 27.8672 109.197 28.4766 108.283 28.4766ZM107.626 27.9375H107.978V27.1875H108.47C108.587 27.1875 108.658 27.2578 108.658 27.375V27.9375H109.009V27.375C109.009 27.2109 108.915 27.0703 108.728 27.0469V26.9766C108.962 26.8828 109.08 26.7187 109.08 26.4844C109.08 26.1797 108.845 25.9219 108.4 25.9219H107.626V27.9375ZM107.978 26.8594V26.25H108.423C108.611 26.25 108.728 26.3906 108.728 26.5547C108.728 26.7187 108.611 26.8594 108.423 26.8594H107.978Z" fill="white"/>
</g>
<path fill-rule="evenodd" clip-rule="evenodd" d="M123.893 16.3929C127.621 16.3929 130.643 13.3708 130.643 9.64286C130.643 5.91493 127.621 2.89286 123.893 2.89286C120.165 2.89286 117.143 5.91493 117.143 9.64286C117.143 13.3708 120.165 16.3929 123.893 16.3929ZM123.893 19.2857C129.218 19.2857 133.536 14.9685 133.536 9.64286C133.536 4.31725 129.218 0 123.893 0C118.567 0 114.25 4.31725 114.25 9.64286C114.25 14.9685 118.567 19.2857 123.893 19.2857Z" fill="#4AAF42"/>
<defs>
<clipPath id="clip0_7391_229410">
<rect width="109.929" height="36" fill="white" transform="translate(0.464294)"/>
</clipPath>
</defs>
</svg>
