<svg width="121" height="32" viewBox="0 0 121 32" fill="none" xmlns="http://www.w3.org/2000/svg">
<g clip-path="url(#clip0_8719_1413)">
<path d="M8.5319 25.6667C12.3027 25.6667 14.7194 23.625 14.7194 20.625C14.7194 17.6042 12.4069 16.4375 9.1569 15.7083L8.2819 15.5C6.13607 15.0208 5.01107 14.3958 5.01107 12.875C5.01107 11.375 6.17773 10.4792 8.24024 10.4792C10.3652 10.4792 11.7819 11.375 11.7819 13.5208V14.3958H14.3444V13.5208C14.3444 10 11.7611 8.1875 8.24024 8.1875C4.76107 8.1875 2.44857 10 2.44857 12.9583C2.44857 15.8958 4.49023 17.0625 7.7194 17.7917L8.61524 18.0208C10.8236 18.5208 12.1569 19.0625 12.1569 20.6875C12.1569 22.2708 10.9069 23.3958 8.5319 23.3958C6.1569 23.3958 4.61523 22.2292 4.61523 19.8333V19.2292H2.05273V19.8333C2.05273 23.6042 4.76107 25.6667 8.5319 25.6667Z" fill="#0A0E15"/>
<path d="M17.4417 11.8958C18.4208 11.8958 19.15 11.2292 19.15 10.2083C19.15 9.20833 18.4208 8.54167 17.4417 8.54167C16.4625 8.54167 15.7542 9.20833 15.7542 10.2083C15.7542 11.2292 16.4625 11.8958 17.4417 11.8958ZM16.2125 25.3333H18.6708V13.5H16.2125V25.3333Z" fill="#0A0E15"/>
<path d="M23.8138 30.2083H27.3763C29.9804 30.2083 31.4388 28.9167 31.4388 26.875V26.6875C31.4388 24.6042 29.9804 23.4375 27.3763 23.4375H23.7513C23.0221 23.4375 22.5221 23.125 22.5221 22.4583C22.5221 21.875 22.8763 21.5833 23.3138 21.4792C23.9179 21.6875 24.5846 21.8125 25.3346 21.8125C28.0013 21.8125 29.8138 20.3125 29.8138 17.7083C29.8138 16.9167 29.5638 16.2708 29.2513 15.7917V15.4375H31.2929V13.5H27.2304C26.7304 13.3333 26.0429 13.1667 25.3138 13.1667C22.6679 13.1667 20.6471 14.625 20.6471 17.4167V17.5C20.6471 18.7917 21.0638 19.7708 21.7513 20.4792V20.7917C21.0846 21.0833 20.4179 21.7292 20.4179 22.8542C20.4179 23.9167 20.9596 24.5208 21.5013 24.8542V25.1875C20.9179 25.4583 20.1888 26.125 20.1888 27.375C20.1888 28.9375 21.2513 30.2083 23.8138 30.2083ZM25.3346 19.7917C23.9596 19.7917 22.9596 18.875 22.9596 17.4583C22.9596 16.0417 23.9596 15.125 25.3346 15.125C26.7096 15.125 27.7096 16.0417 27.7096 17.4583C27.7096 18.875 26.7096 19.7917 25.3346 19.7917ZM23.9596 28.1875C22.9388 28.1875 22.3346 27.7083 22.3346 26.8542C22.3346 25.9792 22.9388 25.4792 23.9596 25.4792H27.5846C28.6263 25.4792 29.2304 25.9792 29.2304 26.8542C29.2304 27.7083 28.6263 28.1875 27.5846 28.1875H23.9596Z" fill="#0A0E15"/>
<path d="M32.5037 25.3333H34.962V19.3542C34.962 16.8125 36.3162 15.4167 38.3579 15.4167C40.1495 15.4167 41.2329 16.3542 41.2329 18.4167V25.3333H43.712V18.2292C43.712 15.1875 41.7537 13.3125 39.0662 13.3125C36.7954 13.3125 35.7537 14.3125 35.2954 15.2708H34.9204V13.5H32.5037V25.3333Z" fill="#0A0E15"/>
<path d="M49.596 25.6667C52.0335 25.6667 52.9085 24.4167 53.2626 23.6458H53.6376V23.7292C53.6376 24.7083 54.4085 25.3333 55.5126 25.3333H57.3668V23.2708H56.3668C55.9293 23.2708 55.6793 23.0208 55.6793 22.5417V17.6875C55.6793 14.7917 53.8251 13.1667 50.7418 13.1667C47.721 13.1667 46.1585 14.7708 45.5751 16.6458L47.8876 17.3958C48.1793 16.125 49.0126 15.2292 50.721 15.2292C52.4501 15.2292 53.2626 16.1458 53.2626 17.5V18.2708H49.6585C47.0751 18.2708 45.1585 19.5208 45.1585 21.9167C45.1585 24.3333 47.0751 25.6667 49.596 25.6667ZM49.9501 23.625C48.4918 23.625 47.6168 22.9375 47.6168 21.8542C47.6168 20.7708 48.4918 20.1875 49.8043 20.1875H53.2626V20.4375C53.2626 22.4375 51.9293 23.625 49.9501 23.625Z" fill="#0A0E15"/>
<path d="M58.4429 25.3333H60.9012V8.54167H58.4429V25.3333Z" fill="#0A0E15"/>
<path d="M68.7942 25.6667C72.3358 25.6667 74.94 23.375 74.94 19.6042V19.2292C74.94 15.5 72.3358 13.1667 68.7942 13.1667C65.2317 13.1667 62.6692 15.5 62.6692 19.2292V19.6042C62.6692 23.375 65.2317 25.6667 68.7942 25.6667ZM68.7942 23.4583C66.6275 23.4583 65.1483 22 65.1483 19.5208V19.3125C65.1483 16.8542 66.6275 15.375 68.7942 15.375C70.9608 15.375 72.4608 16.8542 72.4608 19.3125V19.5208C72.4608 22 70.94 23.4583 68.7942 23.4583Z" fill="#0A0E15"/>
<path d="M77.9073 11.8958C78.8864 11.8958 79.6156 11.2292 79.6156 10.2083C79.6156 9.20833 78.8864 8.54167 77.9073 8.54167C76.9281 8.54167 76.2198 9.20833 76.2198 10.2083C76.2198 11.2292 76.9281 11.8958 77.9073 11.8958ZM76.6781 25.3333H79.1364V13.5H76.6781V25.3333Z" fill="#0A0E15"/>
<path d="M86.3835 25.6667C88.6752 25.6667 89.8002 24.6875 90.4044 23.6458H90.8002V25.3333H93.2169V8.54167H90.7377V15.1042H90.3627C89.8002 14.1458 88.6752 13.1667 86.3835 13.1667C83.4044 13.1667 80.9044 15.4167 80.9044 19.2292V19.6042C80.9044 23.4375 83.4252 25.6667 86.3835 25.6667ZM87.071 23.5C84.9669 23.5 83.4044 22.0625 83.4044 19.5208V19.3125C83.4044 16.7708 84.9252 15.3542 87.071 15.3542C89.2377 15.3542 90.7585 16.7708 90.7585 19.3125V19.5208C90.7585 22.0625 89.196 23.5 87.071 23.5Z" fill="#0A0E15"/>
<path d="M95.8386 25.625C96.7969 25.625 97.5261 24.9375 97.5261 23.9583C97.5261 22.9792 96.7969 22.2917 95.8386 22.2917C94.8802 22.2917 94.1719 22.9792 94.1719 23.9583C94.1719 24.9375 94.8802 25.625 95.8386 25.625ZM95.8386 25.3125C95.0261 25.3125 94.4844 24.7708 94.4844 23.9583C94.4844 23.1458 95.0261 22.6042 95.8386 22.6042C96.6511 22.6042 97.1927 23.1458 97.1927 23.9583C97.1927 24.7708 96.6511 25.3125 95.8386 25.3125ZM95.2552 24.8333H95.5677V24.1667H96.0052C96.1094 24.1667 96.1719 24.2292 96.1719 24.3333V24.8333H96.4844V24.3333C96.4844 24.1875 96.4011 24.0625 96.2344 24.0417V23.9792C96.4427 23.8958 96.5469 23.75 96.5469 23.5417C96.5469 23.2708 96.3386 23.0417 95.9427 23.0417H95.2552V24.8333ZM95.5677 23.875V23.3333H95.9636C96.1302 23.3333 96.2344 23.4583 96.2344 23.6042C96.2344 23.75 96.1302 23.875 95.9636 23.875H95.5677Z" fill="#0A0E15"/>
</g>
<path fill-rule="evenodd" clip-rule="evenodd" d="M112.286 14.5714C115.599 14.5714 118.286 11.8851 118.286 8.57143C118.286 5.25772 115.599 2.57143 112.286 2.57143C108.972 2.57143 106.286 5.25772 106.286 8.57143C106.286 11.8851 108.972 14.5714 112.286 14.5714ZM112.286 17.1429C117.02 17.1429 120.857 13.3053 120.857 8.57143C120.857 3.83756 117.02 0 112.286 0C107.552 0 103.714 3.83756 103.714 8.57143C103.714 13.3053 107.552 17.1429 112.286 17.1429Z" fill="#4AAF42"/>
<defs>
<clipPath id="clip0_8719_1413">
<rect width="97.7143" height="32" fill="white"/>
</clipPath>
</defs>
</svg>
