<svg width="41" height="40" viewBox="0 0 41 40" fill="none" xmlns="http://www.w3.org/2000/svg">
<g id="Camera">
<path id="Vector" d="M39.0835 39.2H1.58354C1.33479 39.2 1.13354 38.9988 1.13354 38.75V6.25C1.13354 6.00125 1.33479 5.8 1.58354 5.8H4.88354V1.25C4.88354 1.00125 5.08479 0.800003 5.33355 0.800003H20.3335C20.5823 0.800003 20.7835 1.00125 20.7835 1.25V5.8H39.0835C39.3323 5.8 39.5335 6.00125 39.5335 6.25V38.75C39.5335 38.9988 39.3323 39.2 39.0835 39.2ZM2.03354 38.3H38.6335V6.7H2.03354V38.3ZM5.78355 5.8H19.8835V1.7H5.78355V5.8ZM20.3335 32.95C15.261 32.95 11.1335 28.8225 11.1335 23.75C11.1335 18.6775 15.261 14.55 20.3335 14.55C25.4073 14.55 29.5335 18.6775 29.5335 23.75C29.5335 28.8238 25.4073 32.95 20.3335 32.95ZM20.3335 15.45C15.7573 15.45 12.0335 19.1738 12.0335 23.75C12.0335 28.3263 15.7573 32.05 20.3335 32.05C24.9098 32.05 28.6335 28.3263 28.6335 23.75C28.6335 19.1738 24.9098 15.45 20.3335 15.45ZM35.3335 10.45H25.3335V9.55H35.3335V10.45Z" fill="url(#paint0_linear_7369_814907)"/>
</g>
<defs>
<linearGradient id="paint0_linear_7369_814907" x1="1.13354" y1="39.2" x2="39.5335" y2="0.800002" gradientUnits="userSpaceOnUse">
<stop offset="0.2" stop-color="#B46601"/>
<stop offset="1" stop-color="#FFA868"/>
</linearGradient>
</defs>
</svg>
