<svg width="41" height="40" viewBox="0 0 41 40" fill="none" xmlns="http://www.w3.org/2000/svg">
<g id="Chart-candlestick">
<path id="Vector" d="M39.4168 39.2H1.9168C1.66805 39.2 1.4668 38.9987 1.4668 38.75V1.25H2.3668V38.3H39.4168V39.2ZM32.3668 35H31.4668V31.7H29.4168C29.168 31.7 28.9668 31.4988 28.9668 31.25V16.25C28.9668 16.0013 29.168 15.8 29.4168 15.8H31.4668V12.5H32.368V15.8H34.4168C34.6655 15.8 34.8668 16.0013 34.8668 16.25V31.25C34.8668 31.4988 34.6655 31.7 34.4168 31.7H32.3668V35ZM29.8668 30.8H33.9655V16.7H29.8668V30.8ZM9.8668 31.25H8.9668V24.2H6.9168C6.66805 24.2 6.4668 23.9988 6.4668 23.75V13.75C6.4668 13.5013 6.66805 13.3 6.9168 13.3H8.9668V6.25H9.8668V13.3H11.9168C12.1655 13.3 12.3668 13.5013 12.3668 13.75V23.75C12.3668 23.9988 12.1655 24.2 11.9168 24.2H9.8668V31.25ZM7.3668 23.3H11.4668V14.2H7.3668V23.3ZM21.1168 26.25H20.2168V19.2H18.1668C17.918 19.2 17.7168 18.9988 17.7168 18.75V11.25C17.7168 11.0013 17.918 10.8 18.1668 10.8H20.2168V3.75H21.1168V10.8H23.1668C23.4155 10.8 23.6168 11.0013 23.6168 11.25V18.75C23.6168 18.9988 23.4155 19.2 23.1668 19.2H21.1168V26.25ZM18.6168 18.3H22.7168V11.7H18.6168V18.3Z" fill="url(#paint0_linear_7369_814931)"/>
</g>
<defs>
<linearGradient id="paint0_linear_7369_814931" x1="-0.261619" y1="46.844" x2="45.4887" y2="37.9577" gradientUnits="userSpaceOnUse">
<stop stop-color="#1C4819"/>
<stop offset="1" stop-color="#307D2B"/>
</linearGradient>
</defs>
</svg>
