<svg width="40" height="40" viewBox="0 0 40 40" fill="none" xmlns="http://www.w3.org/2000/svg">
<g id="Invoice" clip-path="url(#clip0_7369_814919)">
<path id="Vector" d="M30 39.2C24.9263 39.2 20.8 35.0725 20.8 30C20.8 29.7325 20.8113 29.465 20.835 29.2H6.25005V28.3H20.96C21.125 27.4287 21.4151 26.5812 21.8225 25.7975C22.1113 25.2287 22.4601 24.6925 22.8588 24.2012H6.25005V23.3H23.6938C24.0651 22.9525 24.465 22.635 24.8913 22.3525C26.4025 21.3375 28.17 20.8 30 20.8C35.0738 20.8 39.2001 24.9262 39.2001 30C39.2001 35.0737 35.0738 39.2 30 39.2ZM30 21.7C28.35 21.7 26.7551 22.185 25.39 23.1012C24.2176 23.8762 23.2613 24.95 22.6225 26.2075C22.0188 27.37 21.7001 28.68 21.7001 29.9987C21.7001 34.575 25.4238 38.2987 30 38.2987C34.5763 38.2987 38.3 34.575 38.3 29.9987C38.3 25.4225 34.5763 21.7 30 21.7ZM21.25 39.2H1.25005C1.0013 39.2 0.800049 38.9987 0.800049 38.75V1.24999C0.800049 1.00124 1.0013 0.799988 1.25005 0.799988H23.75C23.8701 0.799988 23.985 0.847488 24.0688 0.931238L31.5688 8.43124C31.6525 8.51624 31.7001 8.62999 31.7001 8.74999V18.75H30.8V9.19999H23.75C23.5013 9.19999 23.3 8.99874 23.3 8.74999V1.69999H1.70005V38.3H21.25V39.2ZM24.2001 8.29999H30.1638L24.2001 2.33624V8.29999ZM30.4501 34.375H29.55V32.95H27.5V32.05H31.25C31.6913 32.05 32.05 31.6912 32.05 31.25C32.05 30.8087 31.6913 30.45 31.25 30.45H28.75C27.8125 30.45 27.05 29.6875 27.05 28.75C27.05 27.8125 27.8125 27.05 28.75 27.05H29.55V25.625H30.4513V27.05H32.5V27.9512H28.75C28.3088 27.9512 27.9501 28.31 27.9501 28.7512C27.9501 29.1925 28.3088 29.5512 28.75 29.5512H31.25C32.1875 29.5512 32.9501 30.3137 32.9501 31.2512C32.9501 32.1887 32.1875 32.9512 31.25 32.9512H30.4501V34.375ZM17.5 34.2H6.25005V33.3H17.5V34.2ZM26.25 19.2H6.25005V18.3H26.25V19.2ZM26.25 14.2H6.25005V13.3H26.25V14.2Z" fill="url(#paint0_linear_7369_814919)"/>
</g>
<defs>
<linearGradient id="paint0_linear_7369_814919" x1="-0.948862" y1="46.9346" x2="45.3439" y2="37.943" gradientUnits="userSpaceOnUse">
<stop stop-color="#1C4819"/>
<stop offset="1" stop-color="#307D2B"/>
</linearGradient>
<clipPath id="clip0_7369_814919">
<rect width="40" height="40" fill="white"/>
</clipPath>
</defs>
</svg>
