<svg width="40" height="40" viewBox="0 0 40 40" fill="none" xmlns="http://www.w3.org/2000/svg">
<g id="Oil-rig" clip-path="url(#clip0_7369_814883)">
<path id="Vector" d="M38.75 29.2C38.9988 29.2 39.2001 28.9987 39.2001 28.75V23.75C39.2001 23.5012 38.9988 23.3 38.75 23.3H34.2001V8.74996C34.2001 8.67371 34.18 8.60246 34.1476 8.54121L31.7001 3.64371V1.24996C31.7001 1.00121 31.4988 0.79996 31.25 0.79996H28.7588C28.7188 0.79496 28.6851 0.80246 28.6488 0.81121C28.6113 0.81996 28.5738 0.83371 28.5401 0.85121L14.2 8.02121V6.24996C14.2 6.00121 13.9988 5.79996 13.75 5.79996H8.75005C8.5013 5.79996 8.30005 6.00121 8.30005 6.24996V14.55H1.25005C1.0013 14.55 0.800049 14.7512 0.800049 15V28.75C0.800049 28.9987 1.0013 29.2 1.25005 29.2H8.30005V37.4962C8.30005 37.4975 8.30005 37.4987 8.30005 37.4987C8.30005 37.94 7.9413 38.2987 7.50005 38.2987C7.0588 38.2987 6.70005 37.94 6.70005 37.4987C6.70005 37.25 6.4988 37.0487 6.25005 37.0487C6.0013 37.0487 5.80005 37.2512 5.80005 37.5C5.80005 37.9412 5.4413 38.3 5.00005 38.3C4.56755 38.3 4.21505 37.9562 4.20005 37.5262C4.20005 37.5175 4.20005 37.5087 4.20005 37.5C4.20005 37.2512 3.9988 37.05 3.75005 37.05C3.5013 37.05 3.30005 37.2512 3.30005 37.5C3.30005 37.5087 3.30005 37.5175 3.30005 37.5262C3.28505 37.955 2.93255 38.3 2.50005 38.3C2.0588 38.3 1.70005 37.9412 1.70005 37.5C1.70005 37.2512 1.4988 37.05 1.25005 37.05C1.0013 37.05 0.800049 37.2512 0.800049 37.5C0.800049 38.4375 1.56255 39.2 2.50005 39.2C2.9938 39.2 3.4388 38.9875 3.75005 38.6512C4.3713 39.325 5.62755 39.325 6.25005 38.6512C6.8713 39.325 8.1288 39.325 8.75005 38.6512C9.0613 38.9887 9.5063 39.2 10 39.2C10.4963 39.2 10.94 38.9825 11.25 38.6412C11.5613 38.9812 12.0038 39.2 12.5 39.2C12.9938 39.2 13.4388 38.9875 13.75 38.6512C14.3725 39.325 15.6288 39.325 16.25 38.6512C16.8713 39.325 18.1275 39.325 18.75 38.6512C19.0613 38.9887 19.505 39.2 20 39.2C20.4963 39.2 20.9388 38.9825 21.25 38.6425C21.5613 38.9825 22.0038 39.2 22.5 39.2C22.9951 39.2 23.4388 38.9875 23.75 38.6512C24.3725 39.325 25.6276 39.325 26.25 38.6512C26.8725 39.325 28.1276 39.325 28.75 38.6512C29.0613 38.9887 29.505 39.2 30 39.2C30.4963 39.2 30.9388 38.9825 31.25 38.6425C31.5613 38.9825 32.0038 39.2 32.5 39.2C32.995 39.2 33.4388 38.9875 33.75 38.6512C34.3726 39.325 35.6275 39.325 36.25 38.6512C36.5613 38.9887 37.0051 39.2 37.5 39.2C38.4375 39.2 39.2001 38.4375 39.2001 37.5C39.2001 37.2512 38.9988 37.05 38.75 37.05C38.5013 37.05 38.3 37.2512 38.3 37.5C38.3 37.9412 37.9413 38.3 37.5 38.3C37.0588 38.3 36.7001 37.9412 36.7001 37.5C36.7001 37.2512 36.4988 37.05 36.25 37.05C36.0013 37.05 35.8 37.2512 35.8 37.5C35.8 37.9412 35.4413 38.3 35 38.3C34.5588 38.3 34.2001 37.9412 34.2001 37.5V29.2H38.75ZM28.75 14.55H26.7001V9.19996H33.2988V23.3H29.2001V15C29.2001 14.7512 28.9988 14.55 28.75 14.55ZM28.3 15.45V23.3H26.25H21.7001V15.45H28.3ZM29.2001 1.69996H30.7988V3.29996H29.2001V1.69996ZM29.0288 4.19996H30.9725L33.0238 8.29996H26.9788L29.0288 4.19996ZM14.2 9.02871L28.3 1.97871V3.64496L25.8525 8.54121C25.8188 8.60246 25.8 8.67371 25.8 8.74996V14.55H21.25C21.0013 14.55 20.8 14.7512 20.8 15V23.3H19.2V15C19.2 14.7512 18.9988 14.55 18.75 14.55H14.2V9.02871ZM9.20005 6.69996H13.3V8.74121C13.3 8.74746 13.3 8.75371 13.3 8.75996V14.55H9.20005V6.69996ZM1.70005 15.45H18.3V23.3H1.70005V15.45ZM15 38.3C14.5675 38.3 14.215 37.9562 14.2 37.5262C14.2 37.5175 14.2 37.5087 14.2 37.5C14.2 37.2512 13.9988 37.05 13.75 37.05C13.5013 37.05 13.3 37.2512 13.3 37.5C13.3 37.5087 13.3 37.5175 13.3 37.5262C13.2863 37.9562 12.9325 38.3 12.5 38.3C12.0588 38.3 11.7 37.9412 11.7 37.5C11.7 37.2512 11.4988 37.05 11.25 37.05C11.0013 37.05 10.8 37.2512 10.8 37.5C10.8 37.9412 10.4413 38.3 10 38.3C9.56005 38.3 9.20255 37.9425 9.20005 37.5037V29.2H15.8V37.5C15.8 37.9412 15.4413 38.3 15 38.3ZM30 38.3C29.5588 38.3 29.2001 37.9412 29.2001 37.5C29.2001 37.2512 28.9988 37.05 28.75 37.05C28.5013 37.05 28.3 37.2512 28.3 37.5C28.3 37.9412 27.9413 38.3 27.5 38.3C27.0588 38.3 26.7001 37.9412 26.7001 37.5C26.7001 37.2512 26.4988 37.05 26.25 37.05C26.0013 37.05 25.8 37.2512 25.8 37.5C25.8 37.9412 25.4413 38.3 25 38.3C24.5588 38.3 24.2001 37.9412 24.2001 37.5C24.2001 37.2512 23.9988 37.05 23.75 37.05C23.5013 37.05 23.3 37.2512 23.3 37.5C23.3 37.9412 22.9413 38.3 22.5 38.3C22.0588 38.3 21.7001 37.9412 21.7001 37.5C21.7001 37.2512 21.4988 37.05 21.25 37.05C21.0013 37.05 20.8 37.2512 20.8 37.5C20.8 37.9412 20.4413 38.3 20 38.3C19.5675 38.3 19.215 37.9562 19.2 37.5262C19.2 37.5175 19.2 37.5087 19.2 37.5C19.2 37.2512 18.9988 37.05 18.75 37.05C18.5013 37.05 18.3 37.2512 18.3 37.5C18.3 37.5087 18.3 37.5175 18.3 37.5262C18.2863 37.9562 17.9325 38.3 17.5 38.3C17.0588 38.3 16.7 37.9412 16.7 37.5V29.2H30.8V37.5C30.8 37.9412 30.4413 38.3 30 38.3ZM32.5 38.3C32.0588 38.3 31.7001 37.9412 31.7001 37.5V29.2H33.2988V37.5C33.3 37.9412 32.9413 38.3 32.5 38.3ZM33.75 28.3H1.70005V24.2H38.3V28.2987L33.75 28.3Z" fill="url(#paint0_linear_7369_814883)"/>
</g>
<defs>
<linearGradient id="paint0_linear_7369_814883" x1="0.800049" y1="39.2" x2="39.2017" y2="0.799961" gradientUnits="userSpaceOnUse">
<stop offset="0.2" stop-color="#1B5390"/>
<stop offset="1" stop-color="#4D99FA"/>
</linearGradient>
<clipPath id="clip0_7369_814883">
<rect width="40" height="40" fill="white"/>
</clipPath>
</defs>
</svg>
