<svg width="41" height="40" viewBox="0 0 41 40" fill="none" xmlns="http://www.w3.org/2000/svg">
<g id="Temperature-high">
<path id="Vector" d="M15.6668 39.2C11.283 39.2 7.7168 35.6325 7.7168 31.25C7.7168 27.9988 9.71305 25.0763 12.7168 23.875V1.25C12.7168 1.00125 12.918 0.800003 13.1668 0.800003H18.1668C18.4155 0.800003 18.6168 1.00125 18.6168 1.25V23.875C21.6205 25.0763 23.6168 28.0013 23.6168 31.25C23.6168 35.6338 20.0505 39.2 15.6668 39.2ZM13.6168 7.95V24.1863C13.6168 24.3763 13.4968 24.5463 13.3168 24.6113C10.5055 25.605 8.6168 28.2725 8.6168 31.25C8.6168 35.1375 11.7793 38.3 15.6668 38.3C19.5543 38.3 22.7168 35.1388 22.7168 31.25C22.7168 28.2738 20.828 25.605 18.0168 24.61C17.8368 24.545 17.7168 24.375 17.7168 24.185V7.95H13.6168ZM13.6168 7.05H17.7168V1.7H13.6168V7.05ZM28.1668 22.95H23.1668V22.05H28.1668V22.95ZM33.1668 19.2H23.1668V18.3H33.1668V19.2ZM28.1668 15.45H23.1668V14.55H28.1668V15.45ZM33.1668 11.7H23.1668V10.8H33.1668V11.7ZM28.1668 7.95H23.1668V7.05H28.1668V7.95ZM33.1668 4.2H23.1668V3.3H33.1668V4.2Z" fill="url(#paint0_linear_7369_814895)"/>
</g>
<defs>
<linearGradient id="paint0_linear_7369_814895" x1="7.7168" y1="39.2" x2="43.0824" y2="15.7611" gradientUnits="userSpaceOnUse">
<stop offset="0.2" stop-color="#B46601"/>
<stop offset="1" stop-color="#FFA868"/>
</linearGradient>
</defs>
</svg>
