<svg width="41" height="40" viewBox="0 0 41 40" fill="none" xmlns="http://www.w3.org/2000/svg">
<g id="Waste-electronic">
<path id="Vector" d="M11.901 35.3187L11.2648 34.6812L17.996 27.95H1.58354C1.33479 27.95 1.13354 27.7487 1.13354 27.5V12.5C1.13354 12.2512 1.33479 12.05 1.58354 12.05H18.8973L26.2648 4.68124L26.9023 5.31749L12.6698 19.55H26.5835C26.766 19.55 26.9298 19.6587 26.9998 19.8275C27.0698 19.995 27.0298 20.1887 26.9023 20.3175L11.901 35.3187ZM4.53354 27.05H18.8973L25.4973 20.45H11.5835C11.401 20.45 11.2373 20.3412 11.1673 20.1725C11.0973 20.005 11.136 19.8112 11.2648 19.6825L17.996 12.95H4.53354V27.05ZM2.03354 27.05H3.63354V12.95H2.03354V27.05ZM36.5835 27.95H22.8335V27.05H33.6335V12.95H22.8335V12.05H36.5835C36.8323 12.05 37.0335 12.2512 37.0335 12.5V17.05H39.0835C39.3323 17.05 39.5335 17.2512 39.5335 17.5V22.5C39.5335 22.7487 39.3323 22.95 39.0835 22.95H37.0335V27.5C37.0335 27.7487 36.8323 27.95 36.5835 27.95ZM34.5335 27.05H36.1323V12.95H34.5335V27.05ZM37.0335 22.05H38.6323V17.95H37.0335V22.05Z" fill="url(#paint0_linear_7369_814943)"/>
</g>
<defs>
<linearGradient id="paint0_linear_7369_814943" x1="-39.4298" y1="15.4691" x2="-18.3929" y2="-10.8979" gradientUnits="userSpaceOnUse">
<stop stop-color="#1C2430"/>
<stop offset="1" stop-color="#3F0FB8"/>
</linearGradient>
</defs>
</svg>
